# xmcd CD database file
# Copyright (C) 1997 Ti Kan
#
# Track frame offsets:
#  182
#  11572
#  22265
#  34820
#  48672
#  58427
#  70255
#  83495
#  95067
#  107857
#  117330
#  127842
#  139207
#  153782
#  166230
#  179030
#
# Disc length: 2552 seconds
#
# Revision: 1
# Processed by: cddbd v1.4b41PL1 Copyright (c) Steve Scherf et al.
# Submitted via: CDWizzard Release:4.32
#
DISCID=e209f610
DTITLE=Sonny James - Young Love
DYEAR=1900
DGENRE=
TTITLE0=Young Love
TTITLE1=I Forgot More Than You'll Ever Know
TTITLE2=Are You Lonesome Tonight
TTITLE3=It's The Little Things
TTITLE4=It's Over
TTITLE5=Born to be With You
TTITLE6=Endlessly
TTITLE7=Here Comes Honey Again
TTITLE8=Going Through The Motions (Of Living)
TTITLE9=I Guess It Doesn't Matter Anymore
TTITLE10=I'll Keep Holding On
TTITLE11=A World Of Our Own
TTITLE12=Crazy Arms
TTITLE13=Roses Are Red
TTITLE14=Running Bear
TTITLE15=Don't Keep Me Hanging On
EXTD=
EXTT0=
EXTT1=
EXTT2=
EXTT3=
EXTT4=
EXTT5=
EXTT6=
EXTT7=
EXTT8=
EXTT9=
EXTT10=
EXTT11=
EXTT12=
EXTT13=
EXTT14=
EXTT15=
PLAYORDER=
